<svg width="512" height="196" viewBox="0 0 512 196" fill="none" xmlns="http://www.w3.org/2000/svg">
<path d="M1.92 42V1.68H18.944C19.336 1.68 19.8587 1.69866 20.512 1.736C21.184 1.75467 21.7813 1.81067 22.304 1.904C24.712 2.27733 26.6813 3.07066 28.212 4.284C29.7613 5.49733 30.9 7.028 31.628 8.876C32.356 10.7053 32.72 12.7493 32.72 15.008C32.72 18.3867 31.88 21.28 30.2 23.688C28.52 26.0773 25.888 27.552 22.304 28.112L18.944 28.336H9.536V42H1.92ZM24.656 42L16.704 25.592L24.544 24.08L33.28 42H24.656ZM9.536 21.224H18.608C19 21.224 19.4293 21.2053 19.896 21.168C20.3627 21.1307 20.792 21.056 21.184 20.944C22.2107 20.664 23.004 20.1973 23.564 19.544C24.124 18.872 24.5067 18.1347 24.712 17.332C24.936 16.5107 25.048 15.736 25.048 15.008C25.048 14.28 24.936 13.5147 24.712 12.712C24.5067 11.8907 24.124 11.1533 23.564 10.5C23.004 9.828 22.2107 9.352 21.184 9.072C20.792 8.96 20.3627 8.88533 19.896 8.848C19.4293 8.81066 19 8.792 18.608 8.792H9.536V21.224ZM53.4916 42.84C50.393 42.84 47.6583 42.1773 45.2876 40.852C42.9356 39.508 41.0876 37.6693 39.7436 35.336C38.4183 32.984 37.7556 30.296 37.7556 27.272C37.7556 23.968 38.409 21.0933 39.7156 18.648C41.0223 16.2027 42.8236 14.308 45.1196 12.964C47.4156 11.6013 50.057 10.92 53.0436 10.92C56.217 10.92 58.9143 11.6667 61.1356 13.16C63.357 14.6533 64.9996 16.7533 66.0636 19.46C67.1276 22.1667 67.501 25.3493 67.1836 29.008H59.6516V26.208C59.6516 23.128 59.157 20.916 58.1676 19.572C57.197 18.2093 55.601 17.528 53.3796 17.528C50.785 17.528 48.8716 18.3213 47.6396 19.908C46.4263 21.476 45.8196 23.8 45.8196 26.88C45.8196 29.6987 46.4263 31.8827 47.6396 33.432C48.8716 34.9627 50.673 35.728 53.0436 35.728C54.537 35.728 55.8156 35.4013 56.8796 34.748C57.9436 34.0947 58.7556 33.152 59.3156 31.92L66.9316 34.104C65.793 36.8667 63.9916 39.0133 61.5276 40.544C59.0823 42.0747 56.4036 42.84 53.4916 42.84ZM43.4676 29.008V23.352H63.5156V29.008H43.4676ZM80.5882 42L69.6122 11.76H77.2282L84.3962 32.704L91.5642 11.76H99.1802L88.2042 42H80.5882ZM116.755 42.84C113.712 42.84 111.043 42.1587 108.747 40.796C106.451 39.4333 104.659 37.5573 103.371 35.168C102.101 32.76 101.467 29.9973 101.467 26.88C101.467 23.7253 102.12 20.9533 103.427 18.564C104.733 16.156 106.535 14.28 108.831 12.936C111.127 11.592 113.768 10.92 116.755 10.92C119.797 10.92 122.467 11.6013 124.763 12.964C127.077 14.3267 128.879 16.212 130.167 18.62C131.455 21.0093 132.099 23.7627 132.099 26.88C132.099 30.016 131.445 32.788 130.139 35.196C128.851 37.5853 127.049 39.4613 124.735 40.824C122.439 42.168 119.779 42.84 116.755 42.84ZM116.755 35.728C119.2 35.728 121.02 34.9067 122.215 33.264C123.428 31.6027 124.035 29.4747 124.035 26.88C124.035 24.192 123.419 22.0453 122.187 20.44C120.973 18.8347 119.163 18.032 116.755 18.032C115.093 18.032 113.731 18.4053 112.667 19.152C111.603 19.8987 110.809 20.9347 110.287 22.26C109.783 23.5853 109.531 25.1253 109.531 26.88C109.531 29.5867 110.137 31.7427 111.351 33.348C112.583 34.9347 114.384 35.728 116.755 35.728ZM138.816 42V0.839999H146.432V42H138.816ZM166.082 42.896C163.712 42.896 161.78 42.4947 160.286 41.692C158.793 40.8893 157.626 39.872 156.786 38.64C155.965 37.408 155.377 36.1293 155.022 34.804C154.668 33.46 154.453 32.2373 154.378 31.136C154.304 30.0347 154.266 29.232 154.266 28.728V11.76H161.994V26.04C161.994 26.7307 162.032 27.6173 162.106 28.7C162.181 29.764 162.414 30.8373 162.806 31.92C163.198 33.0027 163.833 33.908 164.71 34.636C165.606 35.364 166.866 35.728 168.49 35.728C169.144 35.728 169.844 35.6253 170.59 35.42C171.337 35.2147 172.037 34.8227 172.69 34.244C173.344 33.6467 173.876 32.7787 174.286 31.64C174.716 30.4827 174.93 28.9707 174.93 27.104L179.298 29.176C179.298 31.5653 178.813 33.8053 177.842 35.896C176.872 37.9867 175.406 39.676 173.446 40.964C171.505 42.252 169.05 42.896 166.082 42.896ZM175.882 42V31.976H174.93V11.76H182.602V42H175.882ZM208.572 42C206.481 42.392 204.428 42.56 202.412 42.504C200.414 42.4667 198.622 42.1213 197.036 41.468C195.468 40.796 194.273 39.7227 193.452 38.248C192.705 36.8667 192.313 35.4667 192.276 34.048C192.238 32.6107 192.22 30.9867 192.22 29.176V3.36H199.836V28.728C199.836 29.904 199.845 30.968 199.864 31.92C199.901 32.8533 200.097 33.6 200.452 34.16C201.124 35.224 202.197 35.8027 203.672 35.896C205.146 35.9893 206.78 35.9147 208.572 35.672V42ZM187.068 17.64V11.76H208.572V17.64H187.068ZM215.871 7.56V0.839999H223.487V7.56H215.871ZM215.871 42V11.76H223.487V42H215.871ZM245.489 42.84C242.446 42.84 239.777 42.1587 237.481 40.796C235.185 39.4333 233.393 37.5573 232.105 35.168C230.836 32.76 230.201 29.9973 230.201 26.88C230.201 23.7253 230.854 20.9533 232.161 18.564C233.468 16.156 235.269 14.28 237.565 12.936C239.861 11.592 242.502 10.92 245.489 10.92C248.532 10.92 251.201 11.6013 253.497 12.964C255.812 14.3267 257.613 16.212 258.901 18.62C260.189 21.0093 260.833 23.7627 260.833 26.88C260.833 30.016 260.18 32.788 258.873 35.196C257.585 37.5853 255.784 39.4613 253.469 40.824C251.173 42.168 248.513 42.84 245.489 42.84ZM245.489 35.728C247.934 35.728 249.754 34.9067 250.949 33.264C252.162 31.6027 252.769 29.4747 252.769 26.88C252.769 24.192 252.153 22.0453 250.921 20.44C249.708 18.8347 247.897 18.032 245.489 18.032C243.828 18.032 242.465 18.4053 241.401 19.152C240.337 19.8987 239.544 20.9347 239.021 22.26C238.517 23.5853 238.265 25.1253 238.265 26.88C238.265 29.5867 238.872 31.7427 240.085 33.348C241.317 34.9347 243.118 35.728 245.489 35.728ZM287.598 42V27.72C287.598 27.0293 287.561 26.152 287.486 25.088C287.412 24.0053 287.178 22.9227 286.786 21.84C286.394 20.7573 285.75 19.852 284.854 19.124C283.977 18.396 282.726 18.032 281.102 18.032C280.449 18.032 279.749 18.1347 279.002 18.34C278.256 18.5453 277.556 18.9467 276.902 19.544C276.249 20.1227 275.708 20.9813 275.278 22.12C274.868 23.2587 274.662 24.7707 274.662 26.656L270.294 24.584C270.294 22.1947 270.78 19.9547 271.75 17.864C272.721 15.7733 274.177 14.084 276.118 12.796C278.078 11.508 280.542 10.864 283.51 10.864C285.881 10.864 287.813 11.2653 289.306 12.068C290.8 12.8707 291.957 13.888 292.778 15.12C293.618 16.352 294.216 17.64 294.57 18.984C294.925 20.3093 295.14 21.5227 295.214 22.624C295.289 23.7253 295.326 24.528 295.326 25.032V42H287.598ZM266.934 42V11.76H273.71V21.784H274.662V42H266.934ZM303.152 7.56V0.839999H310.768V7.56H303.152ZM303.152 42V11.76H310.768V42H303.152ZM316.362 42V41.048L331.202 18.368H318.042V11.76H342.962V12.712L328.178 35.392H342.402V42H316.362ZM360.945 42.84C357.846 42.84 355.111 42.1773 352.741 40.852C350.389 39.508 348.541 37.6693 347.197 35.336C345.871 32.984 345.209 30.296 345.209 27.272C345.209 23.968 345.862 21.0933 347.169 18.648C348.475 16.2027 350.277 14.308 352.573 12.964C354.869 11.6013 357.51 10.92 360.497 10.92C363.67 10.92 366.367 11.6667 368.589 13.16C370.81 14.6533 372.453 16.7533 373.517 19.46C374.581 22.1667 374.954 25.3493 374.637 29.008H367.105V26.208C367.105 23.128 366.61 20.916 365.621 19.572C364.65 18.2093 363.054 17.528 360.833 17.528C358.238 17.528 356.325 18.3213 355.093 19.908C353.879 21.476 353.273 23.8 353.273 26.88C353.273 29.6987 353.879 31.8827 355.093 33.432C356.325 34.9627 358.126 35.728 360.497 35.728C361.99 35.728 363.269 35.4013 364.333 34.748C365.397 34.0947 366.209 33.152 366.769 31.92L374.385 34.104C373.246 36.8667 371.445 39.0133 368.981 40.544C366.535 42.0747 363.857 42.84 360.945 42.84ZM350.921 29.008V23.352H370.969V29.008H350.921ZM396.034 55.44L401.858 39.424L401.97 44.128L388.81 11.76H396.706L405.554 34.664H403.762L412.554 11.76H420.17L403.09 55.44H396.034ZM436.622 42.84C433.579 42.84 430.91 42.1587 428.614 40.796C426.318 39.4333 424.526 37.5573 423.238 35.168C421.968 32.76 421.334 29.9973 421.334 26.88C421.334 23.7253 421.987 20.9533 423.294 18.564C424.6 16.156 426.402 14.28 428.698 12.936C430.994 11.592 433.635 10.92 436.622 10.92C439.664 10.92 442.334 11.6013 444.63 12.964C446.944 14.3267 448.746 16.212 450.034 18.62C451.322 21.0093 451.966 23.7627 451.966 26.88C451.966 30.016 451.312 32.788 450.006 35.196C448.718 37.5853 446.916 39.4613 444.602 40.824C442.306 42.168 439.646 42.84 436.622 42.84ZM436.622 35.728C439.067 35.728 440.887 34.9067 442.082 33.264C443.295 31.6027 443.902 29.4747 443.902 26.88C443.902 24.192 443.286 22.0453 442.054 20.44C440.84 18.8347 439.03 18.032 436.622 18.032C434.96 18.032 433.598 18.4053 432.534 19.152C431.47 19.8987 430.676 20.9347 430.154 22.26C429.65 23.5853 429.398 25.1253 429.398 26.88C429.398 29.5867 430.004 31.7427 431.218 33.348C432.45 34.9347 434.251 35.728 436.622 35.728ZM469.379 42.896C467.008 42.896 465.076 42.4947 463.583 41.692C462.09 40.8893 460.923 39.872 460.083 38.64C459.262 37.408 458.674 36.1293 458.319 34.804C457.964 33.46 457.75 32.2373 457.675 31.136C457.6 30.0347 457.563 29.232 457.563 28.728V11.76H465.291V26.04C465.291 26.7307 465.328 27.6173 465.403 28.7C465.478 29.764 465.711 30.8373 466.103 31.92C466.495 33.0027 467.13 33.908 468.007 34.636C468.903 35.364 470.163 35.728 471.787 35.728C472.44 35.728 473.14 35.6253 473.887 35.42C474.634 35.2147 475.334 34.8227 475.987 34.244C476.64 33.6467 477.172 32.7787 477.583 31.64C478.012 30.4827 478.227 28.9707 478.227 27.104L482.595 29.176C482.595 31.5653 482.11 33.8053 481.139 35.896C480.168 37.9867 478.703 39.676 476.743 40.964C474.802 42.252 472.347 42.896 469.379 42.896ZM479.179 42V31.976H478.227V11.76H485.899V42H479.179ZM493.725 42V11.76H500.445V19.152L499.717 18.2C500.109 17.1547 500.631 16.2027 501.285 15.344C501.938 14.4853 502.741 13.776 503.693 13.216C504.421 12.768 505.214 12.4227 506.073 12.18C506.931 11.9187 507.818 11.76 508.733 11.704C509.647 11.6293 510.562 11.648 511.477 11.76V18.872C510.637 18.6107 509.657 18.5267 508.537 18.62C507.435 18.6947 506.437 18.9467 505.541 19.376C504.645 19.7867 503.889 20.3373 503.273 21.028C502.657 21.7 502.19 22.5027 501.873 23.436C501.555 24.3507 501.397 25.3867 501.397 26.544V42H493.725ZM398.829 112L389.589 81.704L397.037 81.76L402.525 99.792L408.097 81.76H414.425L419.997 99.792L425.485 81.76H432.933L423.693 112H417.869L411.261 92.288L404.653 112H398.829ZM438.558 77.56V70.84H446.174V77.56H438.558ZM438.558 112V81.76H446.174V112H438.558ZM472.712 112C470.622 112.392 468.568 112.56 466.552 112.504C464.555 112.467 462.763 112.121 461.176 111.468C459.608 110.796 458.414 109.723 457.592 108.248C456.846 106.867 456.454 105.467 456.416 104.048C456.379 102.611 456.36 100.987 456.36 99.176V73.36H463.976V98.728C463.976 99.904 463.986 100.968 464.004 101.92C464.042 102.853 464.238 103.6 464.592 104.16C465.264 105.224 466.338 105.803 467.812 105.896C469.287 105.989 470.92 105.915 472.712 105.672V112ZM451.208 87.64V81.76H472.712V87.64H451.208ZM500.059 112V97.72C500.059 97.0293 500.022 96.152 499.947 95.088C499.873 94.0053 499.639 92.9227 499.247 91.84C498.855 90.7573 498.211 89.852 497.315 89.124C496.438 88.396 495.187 88.032 493.563 88.032C492.91 88.032 492.21 88.1347 491.463 88.34C490.717 88.5453 490.017 88.9467 489.363 89.544C488.71 90.1227 488.169 90.9813 487.739 92.12C487.329 93.2587 487.123 94.7707 487.123 96.656L482.755 94.584C482.755 92.1947 483.241 89.9547 484.211 87.864C485.182 85.7733 486.638 84.084 488.579 82.796C490.539 81.508 493.003 80.864 495.971 80.864C498.342 80.864 500.274 81.2653 501.767 82.068C503.261 82.8707 504.418 83.888 505.239 85.12C506.079 86.352 506.677 87.64 507.031 88.984C507.386 90.3093 507.601 91.5227 507.675 92.624C507.75 93.7253 507.787 94.528 507.787 95.032V112H500.059ZM479.395 112V71.68H486.171V92.4H487.123V112H479.395Z" fill="#1B1B1B" fill-opacity="0.8"/>
<path d="M229.613 182V174.384H237.229V182H229.613Z" fill="black"/>
<path d="M1.92 112V71.68H26.196V78.428H8.668V88.48H22.836V95.2H8.668V112H1.92ZM38.5948 112.84C36.4108 112.84 34.5628 112.429 33.0508 111.608C31.5388 110.768 30.3908 109.657 29.6068 108.276C28.8414 106.895 28.4588 105.373 28.4588 103.712C28.4588 102.256 28.7014 100.949 29.1868 99.792C29.6721 98.616 30.4188 97.608 31.4268 96.768C32.4348 95.9093 33.7414 95.2093 35.3468 94.668C36.5601 94.276 37.9788 93.9213 39.6028 93.604C41.2454 93.2867 43.0188 92.9973 44.9228 92.736C46.8454 92.456 48.8521 92.1573 50.9428 91.84L48.5348 93.212C48.5534 91.1213 48.0868 89.5813 47.1348 88.592C46.1828 87.6027 44.5774 87.108 42.3188 87.108C40.9561 87.108 39.6401 87.4253 38.3708 88.06C37.1014 88.6947 36.2148 89.7867 35.7108 91.336L29.5508 89.404C30.2974 86.8467 31.7161 84.7933 33.8068 83.244C35.9161 81.6947 38.7534 80.92 42.3188 80.92C45.0068 80.92 47.3681 81.3587 49.4028 82.236C51.4561 83.1133 52.9774 84.5507 53.9668 86.548C54.5081 87.612 54.8348 88.704 54.9468 89.824C55.0588 90.9253 55.1148 92.1293 55.1148 93.436V112H49.2068V105.448L50.1868 106.512C48.8241 108.696 47.2281 110.301 45.3988 111.328C43.5881 112.336 41.3201 112.84 38.5948 112.84ZM39.9388 107.464C41.4694 107.464 42.7761 107.193 43.8588 106.652C44.9414 106.111 45.8001 105.448 46.4348 104.664C47.0881 103.88 47.5268 103.143 47.7508 102.452C48.1054 101.593 48.3014 100.613 48.3388 99.512C48.3948 98.392 48.4228 97.4867 48.4228 96.796L50.4948 97.412C48.4601 97.7293 46.7148 98.0093 45.2588 98.252C43.8028 98.4947 42.5521 98.728 41.5068 98.952C40.4614 99.1573 39.5374 99.3907 38.7348 99.652C37.9508 99.932 37.2881 100.259 36.7468 100.632C36.2054 101.005 35.7854 101.435 35.4868 101.92C35.2068 102.405 35.0668 102.975 35.0668 103.628C35.0668 104.375 35.2534 105.037 35.6268 105.616C36.0001 106.176 36.5414 106.624 37.2508 106.96C37.9788 107.296 38.8748 107.464 39.9388 107.464ZM74.0804 112.84C70.347 112.84 67.3137 112 64.9804 110.32C62.647 108.64 61.2284 106.279 60.7244 103.236L67.6124 102.172C67.967 103.665 68.751 104.841 69.9644 105.7C71.1777 106.559 72.7084 106.988 74.5564 106.988C76.1804 106.988 77.431 106.671 78.3084 106.036C79.2044 105.383 79.6524 104.496 79.6524 103.376C79.6524 102.685 79.4844 102.135 79.1484 101.724C78.831 101.295 78.1217 100.884 77.0204 100.492C75.919 100.1 74.2297 99.6053 71.9524 99.008C69.4137 98.336 67.3977 97.6173 65.9044 96.852C64.411 96.068 63.3377 95.144 62.6844 94.08C62.031 93.016 61.7044 91.728 61.7044 90.216C61.7044 88.3307 62.199 86.688 63.1884 85.288C64.1777 83.888 65.559 82.8147 67.3324 82.068C69.1057 81.3027 71.1964 80.92 73.6044 80.92C75.9564 80.92 78.0377 81.284 79.8484 82.012C81.6777 82.74 83.1524 83.776 84.2724 85.12C85.3924 86.464 86.083 88.0413 86.3444 89.852L79.4564 91.084C79.2884 89.796 78.7004 88.7787 77.6924 88.032C76.703 87.2853 75.3777 86.8653 73.7164 86.772C72.1297 86.6787 70.851 86.9213 69.8804 87.5C68.9097 88.06 68.4244 88.8533 68.4244 89.88C68.4244 90.4587 68.6204 90.9533 69.0124 91.364C69.4044 91.7747 70.1884 92.1853 71.3644 92.596C72.559 93.0067 74.3324 93.5107 76.6844 94.108C79.0924 94.724 81.015 95.4333 82.4524 96.236C83.9084 97.02 84.9537 97.9627 85.5884 99.064C86.2417 100.165 86.5684 101.5 86.5684 103.068C86.5684 106.111 85.4577 108.5 83.2364 110.236C81.0337 111.972 77.9817 112.84 74.0804 112.84ZM113.617 112V97.44C113.617 96.488 113.552 95.4333 113.421 94.276C113.291 93.1187 112.983 92.008 112.497 90.944C112.031 89.8613 111.321 88.9747 110.369 88.284C109.436 87.5933 108.167 87.248 106.561 87.248C105.703 87.248 104.853 87.388 104.013 87.668C103.173 87.948 102.408 88.4333 101.717 89.124C101.045 89.796 100.504 90.7293 100.093 91.924C99.6826 93.1 99.4773 94.612 99.4773 96.46L95.4733 94.752C95.4733 92.176 95.9679 89.8427 96.9573 87.752C97.9653 85.6613 99.4399 84 101.381 82.768C103.323 81.5173 105.712 80.892 108.549 80.892C110.789 80.892 112.637 81.2653 114.093 82.012C115.549 82.7587 116.707 83.7107 117.565 84.868C118.424 86.0253 119.059 87.2573 119.469 88.564C119.88 89.8707 120.141 91.112 120.253 92.288C120.384 93.4453 120.449 94.388 120.449 95.116V112H113.617ZM92.6453 112V71.68H98.6653V92.904H99.4773V112H92.6453ZM128.316 77.168V70.98H135.064V77.168H128.316ZM128.316 112V81.76H135.064V112H128.316ZM156.807 112.84C153.783 112.84 151.142 112.159 148.883 110.796C146.625 109.433 144.87 107.557 143.619 105.168C142.387 102.76 141.771 99.9973 141.771 96.88C141.771 93.7067 142.406 90.9253 143.675 88.536C144.945 86.1467 146.709 84.28 148.967 82.936C151.226 81.592 153.839 80.92 156.807 80.92C159.85 80.92 162.501 81.6013 164.759 82.964C167.018 84.3267 168.773 86.212 170.023 88.62C171.274 91.0093 171.899 93.7627 171.899 96.88C171.899 100.016 171.265 102.788 169.995 105.196C168.745 107.585 166.99 109.461 164.731 110.824C162.473 112.168 159.831 112.84 156.807 112.84ZM156.807 106.512C159.495 106.512 161.493 105.616 162.799 103.824C164.106 102.032 164.759 99.7173 164.759 96.88C164.759 93.9493 164.097 91.616 162.771 89.88C161.446 88.1253 159.458 87.248 156.807 87.248C154.997 87.248 153.503 87.6587 152.327 88.48C151.17 89.2827 150.311 90.412 149.751 91.868C149.191 93.3053 148.911 94.976 148.911 96.88C148.911 99.8107 149.574 102.153 150.899 103.908C152.243 105.644 154.213 106.512 156.807 106.512ZM198.984 112V97.44C198.984 96.488 198.919 95.4333 198.788 94.276C198.658 93.1187 198.35 92.008 197.864 90.944C197.398 89.8613 196.688 88.9747 195.736 88.284C194.803 87.5933 193.534 87.248 191.928 87.248C191.07 87.248 190.22 87.388 189.38 87.668C188.54 87.948 187.775 88.4333 187.084 89.124C186.412 89.796 185.871 90.7293 185.46 91.924C185.05 93.1 184.844 94.612 184.844 96.46L180.84 94.752C180.84 92.176 181.335 89.8427 182.324 87.752C183.332 85.6613 184.807 84 186.748 82.768C188.69 81.5173 191.079 80.892 193.916 80.892C196.156 80.892 198.004 81.2653 199.46 82.012C200.916 82.7587 202.074 83.7107 202.932 84.868C203.791 86.0253 204.426 87.2573 204.836 88.564C205.247 89.8707 205.508 91.112 205.62 92.288C205.751 93.4453 205.816 94.388 205.816 95.116V112H198.984ZM178.012 112V81.76H184.032V91.14H184.844V112H178.012ZM240.966 112.84C238.353 112.84 235.898 112.383 233.602 111.468C231.325 110.535 229.318 109.172 227.582 107.38C225.865 105.588 224.521 103.395 223.55 100.8C222.579 98.1867 222.094 95.2 222.094 91.84C222.094 87.4347 222.915 83.6733 224.558 80.556C226.201 77.42 228.45 75.0213 231.306 73.36C234.162 71.68 237.382 70.84 240.966 70.84C245.931 70.84 249.861 71.9973 252.754 74.312C255.666 76.608 257.635 79.8373 258.662 84L251.774 85.092C251.009 82.7027 249.758 80.7987 248.022 79.38C246.286 77.9427 244.074 77.224 241.386 77.224C238.679 77.1867 236.43 77.7747 234.638 78.988C232.846 80.2013 231.493 81.9093 230.578 84.112C229.682 86.3147 229.234 88.8907 229.234 91.84C229.234 94.7893 229.682 97.356 230.578 99.54C231.474 101.705 232.818 103.395 234.61 104.608C236.421 105.821 238.679 106.447 241.386 106.484C243.421 106.503 245.203 106.139 246.734 105.392C248.265 104.627 249.515 103.479 250.486 101.948C251.457 100.399 252.11 98.4667 252.446 96.152H245.334V90.86H259.614C259.651 91.1587 259.679 91.5973 259.698 92.176C259.717 92.7547 259.726 93.1 259.726 93.212C259.726 97.02 258.97 100.408 257.458 103.376C255.965 106.325 253.818 108.64 251.018 110.32C248.218 112 244.867 112.84 240.966 112.84ZM273.806 112.84C271.622 112.84 269.774 112.429 268.262 111.608C266.75 110.768 265.602 109.657 264.818 108.276C264.052 106.895 263.67 105.373 263.67 103.712C263.67 102.256 263.912 100.949 264.398 99.792C264.883 98.616 265.63 97.608 266.638 96.768C267.646 95.9093 268.952 95.2093 270.558 94.668C271.771 94.276 273.19 93.9213 274.814 93.604C276.456 93.2867 278.23 92.9973 280.134 92.736C282.056 92.456 284.063 92.1573 286.154 91.84L283.746 93.212C283.764 91.1213 283.298 89.5813 282.346 88.592C281.394 87.6027 279.788 87.108 277.53 87.108C276.167 87.108 274.851 87.4253 273.582 88.06C272.312 88.6947 271.426 89.7867 270.922 91.336L264.762 89.404C265.508 86.8467 266.927 84.7933 269.018 83.244C271.127 81.6947 273.964 80.92 277.53 80.92C280.218 80.92 282.579 81.3587 284.614 82.236C286.667 83.1133 288.188 84.5507 289.178 86.548C289.719 87.612 290.046 88.704 290.158 89.824C290.27 90.9253 290.326 92.1293 290.326 93.436V112H284.418V105.448L285.398 106.512C284.035 108.696 282.439 110.301 280.61 111.328C278.799 112.336 276.531 112.84 273.806 112.84ZM275.15 107.464C276.68 107.464 277.987 107.193 279.07 106.652C280.152 106.111 281.011 105.448 281.646 104.664C282.299 103.88 282.738 103.143 282.962 102.452C283.316 101.593 283.512 100.613 283.55 99.512C283.606 98.392 283.634 97.4867 283.634 96.796L285.706 97.412C283.671 97.7293 281.926 98.0093 280.47 98.252C279.014 98.4947 277.763 98.728 276.718 98.952C275.672 99.1573 274.748 99.3907 273.946 99.652C273.162 99.932 272.499 100.259 271.958 100.632C271.416 101.005 270.996 101.435 270.698 101.92C270.418 102.405 270.278 102.975 270.278 103.628C270.278 104.375 270.464 105.037 270.838 105.616C271.211 106.176 271.752 106.624 272.462 106.96C273.19 107.296 274.086 107.464 275.15 107.464ZM333.931 112V93.632C333.931 91.56 333.418 89.9453 332.391 88.788C331.365 87.612 329.974 87.024 328.219 87.024C327.137 87.024 326.166 87.276 325.307 87.78C324.449 88.2653 323.767 88.9933 323.263 89.964C322.759 90.916 322.507 92.0547 322.507 93.38L319.511 91.616C319.493 89.5253 319.959 87.6867 320.911 86.1C321.882 84.4947 323.189 83.244 324.831 82.348C326.474 81.452 328.303 81.004 330.319 81.004C333.661 81.004 336.218 82.012 337.991 84.028C339.783 86.0253 340.679 88.6573 340.679 91.924V112H333.931ZM297.559 112V81.76H303.523V91.14H304.363V112H297.559ZM315.787 112V93.716C315.787 91.6067 315.274 89.964 314.247 88.788C313.221 87.612 311.821 87.024 310.047 87.024C308.33 87.024 306.949 87.612 305.903 88.788C304.877 89.964 304.363 91.4947 304.363 93.38L301.339 91.364C301.339 89.404 301.825 87.64 302.795 86.072C303.766 84.504 305.073 83.272 306.715 82.376C308.377 81.4613 310.234 81.004 312.287 81.004C314.546 81.004 316.431 81.4893 317.943 82.46C319.474 83.412 320.613 84.7187 321.359 86.38C322.125 88.0227 322.507 89.88 322.507 91.952V112H315.787ZM361.238 112.84C358.177 112.84 355.489 112.177 353.174 110.852C350.86 109.527 349.049 107.688 347.742 105.336C346.454 102.984 345.81 100.277 345.81 97.216C345.81 93.912 346.445 91.0467 347.714 88.62C348.984 86.1747 350.748 84.28 353.006 82.936C355.265 81.592 357.878 80.92 360.846 80.92C363.982 80.92 366.642 81.6573 368.826 83.132C371.029 84.588 372.662 86.6507 373.726 89.32C374.79 91.9893 375.192 95.1347 374.93 98.756H368.238V96.292C368.22 93.0067 367.641 90.608 366.502 89.096C365.364 87.584 363.572 86.828 361.126 86.828C358.364 86.828 356.31 87.6867 354.966 89.404C353.622 91.1027 352.95 93.5947 352.95 96.88C352.95 99.9413 353.622 102.312 354.966 103.992C356.31 105.672 358.27 106.512 360.846 106.512C362.508 106.512 363.936 106.148 365.13 105.42C366.344 104.673 367.277 103.6 367.93 102.2L374.594 104.216C373.437 106.941 371.645 109.06 369.218 110.572C366.81 112.084 364.15 112.84 361.238 112.84ZM350.822 98.756V93.66H371.626V98.756H350.822ZM17.152 182.84C14.1653 182.84 11.468 182.317 9.06 181.272C6.67067 180.208 4.70133 178.696 3.152 176.736C1.62133 174.757 0.650667 172.405 0.24 169.68L8.192 168.504C8.752 170.819 9.90933 172.601 11.664 173.852C13.4187 175.103 15.416 175.728 17.656 175.728C18.9067 175.728 20.12 175.532 21.296 175.14C22.472 174.748 23.4333 174.169 24.18 173.404C24.9453 172.639 25.328 171.696 25.328 170.576C25.328 170.165 25.2627 169.773 25.132 169.4C25.02 169.008 24.824 168.644 24.544 168.308C24.264 167.972 23.8627 167.655 23.34 167.356C22.836 167.057 22.192 166.787 21.408 166.544L10.936 163.464C10.152 163.24 9.23733 162.923 8.192 162.512C7.16533 162.101 6.16667 161.513 5.196 160.748C4.22533 159.983 3.41333 158.975 2.76 157.724C2.12533 156.455 1.808 154.859 1.808 152.936C1.808 150.229 2.48933 147.98 3.852 146.188C5.21467 144.396 7.03467 143.061 9.312 142.184C11.5893 141.307 14.1093 140.877 16.872 140.896C19.6533 140.933 22.136 141.409 24.32 142.324C26.504 143.239 28.3333 144.573 29.808 146.328C31.2827 148.064 32.3467 150.192 33 152.712L24.768 154.112C24.4693 152.805 23.9187 151.704 23.116 150.808C22.3133 149.912 21.352 149.231 20.232 148.764C19.1307 148.297 17.9733 148.045 16.76 148.008C15.5653 147.971 14.436 148.139 13.372 148.512C12.3267 148.867 11.468 149.389 10.796 150.08C10.1427 150.771 9.816 151.592 9.816 152.544C9.816 153.421 10.0867 154.14 10.628 154.7C11.1693 155.241 11.8507 155.68 12.672 156.016C13.4933 156.352 14.3333 156.632 15.192 156.856L22.192 158.76C23.2373 159.04 24.3947 159.413 25.664 159.88C26.9333 160.328 28.1467 160.963 29.304 161.784C30.48 162.587 31.4413 163.651 32.188 164.976C32.9533 166.301 33.336 167.981 33.336 170.016C33.336 172.181 32.8787 174.076 31.964 175.7C31.068 177.305 29.8547 178.64 28.324 179.704C26.7933 180.749 25.0573 181.533 23.116 182.056C21.1933 182.579 19.2053 182.84 17.152 182.84ZM57.6343 182C55.5436 182.392 53.4903 182.56 51.4743 182.504C49.477 182.467 47.685 182.121 46.0983 181.468C44.5303 180.796 43.3356 179.723 42.5143 178.248C41.7676 176.867 41.3756 175.467 41.3383 174.048C41.301 172.611 41.2823 170.987 41.2823 169.176V143.36H48.8983V168.728C48.8983 169.904 48.9076 170.968 48.9263 171.92C48.9636 172.853 49.1596 173.6 49.5143 174.16C50.1863 175.224 51.2596 175.803 52.7343 175.896C54.209 175.989 55.8423 175.915 57.6343 175.672V182ZM36.1303 157.64V151.76H57.6343V157.64H36.1303ZM67.4168 195.44L73.2408 179.424L73.3528 184.128L60.1928 151.76H68.0888L76.9368 174.664H75.1448L83.9368 151.76H91.5528L74.4728 195.44H67.4168ZM96.0503 182V140.84H103.666V182H96.0503ZM126.117 182.84C123.018 182.84 120.283 182.177 117.913 180.852C115.561 179.508 113.713 177.669 112.369 175.336C111.043 172.984 110.381 170.296 110.381 167.272C110.381 163.968 111.034 161.093 112.341 158.648C113.647 156.203 115.449 154.308 117.745 152.964C120.041 151.601 122.682 150.92 125.669 150.92C128.842 150.92 131.539 151.667 133.761 153.16C135.982 154.653 137.625 156.753 138.689 159.46C139.753 162.167 140.126 165.349 139.809 169.008H132.277V166.208C132.277 163.128 131.782 160.916 130.793 159.572C129.822 158.209 128.226 157.528 126.005 157.528C123.41 157.528 121.497 158.321 120.265 159.908C119.051 161.476 118.445 163.8 118.445 166.88C118.445 169.699 119.051 171.883 120.265 173.432C121.497 174.963 123.298 175.728 125.669 175.728C127.162 175.728 128.441 175.401 129.505 174.748C130.569 174.095 131.381 173.152 131.941 171.92L139.557 174.104C138.418 176.867 136.617 179.013 134.153 180.544C131.707 182.075 129.029 182.84 126.117 182.84ZM116.093 169.008V163.352H136.141V169.008H116.093ZM146.131 182V141.68H152.963L166.291 168.448L179.619 141.68H186.451V182H179.339V157.92L167.635 182H164.947L153.243 157.92V182H146.131ZM208.367 182.84C205.268 182.84 202.533 182.177 200.163 180.852C197.811 179.508 195.963 177.669 194.619 175.336C193.293 172.984 192.631 170.296 192.631 167.272C192.631 163.968 193.284 161.093 194.591 158.648C195.897 156.203 197.699 154.308 199.995 152.964C202.291 151.601 204.932 150.92 207.919 150.92C211.092 150.92 213.789 151.667 216.011 153.16C218.232 154.653 219.875 156.753 220.939 159.46C222.003 162.167 222.376 165.349 222.059 169.008H214.527V166.208C214.527 163.128 214.032 160.916 213.043 159.572C212.072 158.209 210.476 157.528 208.255 157.528C205.66 157.528 203.747 158.321 202.515 159.908C201.301 161.476 200.695 163.8 200.695 166.88C200.695 169.699 201.301 171.883 202.515 173.432C203.747 174.963 205.548 175.728 207.919 175.728C209.412 175.728 210.691 175.401 211.755 174.748C212.819 174.095 213.631 173.152 214.191 171.92L221.807 174.104C220.668 176.867 218.867 179.013 216.403 180.544C213.957 182.075 211.279 182.84 208.367 182.84ZM198.343 169.008V163.352H218.391V169.008H198.343Z" fill="#FCA311"/>
</svg>
