<svg width="24" height="24" viewBox="0 0 24 24" fill="none" xmlns="http://www.w3.org/2000/svg">
<g id="radix-icons:dashboard">
<path id="Vector" fill-rule="evenodd" clip-rule="evenodd" d="M4.47998 1.60001H4.39998C4.03358 1.60001 3.71838 1.60001 3.43998 1.66561C3.00899 1.76859 2.61494 1.98888 2.30146 2.30207C1.98799 2.61526 1.76735 3.00912 1.66398 3.44001C1.59998 3.71841 1.59998 4.03201 1.59998 4.40001V8.40001C1.59998 8.76641 1.59998 9.08161 1.66558 9.36001C1.76856 9.79099 1.98885 10.185 2.30204 10.4985C2.61523 10.812 3.00909 11.0326 3.43998 11.136C3.71838 11.2 4.03198 11.2 4.39998 11.2H8.39998C8.76638 11.2 9.08158 11.2 9.35998 11.1344C9.79096 11.0314 10.185 10.8111 10.4985 10.4979C10.812 10.1848 11.0326 9.7909 11.136 9.36001C11.2 9.08161 11.2 8.76801 11.2 8.40001V4.40001C11.2 4.03361 11.2 3.71841 11.1344 3.44001C11.0314 3.00902 10.8111 2.61497 10.4979 2.3015C10.1847 1.98802 9.79087 1.76738 9.35998 1.66401C9.08158 1.60001 8.76798 1.60001 8.39998 1.60001H4.47998ZM3.81278 3.22241C3.88158 3.20641 3.98878 3.20001 4.47998 3.20001H8.31998C8.81278 3.20001 8.91838 3.20481 8.98718 3.22241C9.1309 3.25678 9.2623 3.33029 9.3668 3.43478C9.4713 3.53928 9.54481 3.67068 9.57918 3.81441C9.59518 3.88161 9.59998 3.98721 9.59998 4.48001V8.32001C9.59998 8.81281 9.59518 8.91841 9.57758 8.98721C9.54321 9.13093 9.4697 9.26233 9.3652 9.36683C9.2607 9.47133 9.1293 9.54484 8.98558 9.57921C8.91998 9.59361 8.81438 9.60001 8.31998 9.60001H4.47998C3.98718 9.60001 3.88158 9.59521 3.81278 9.57761C3.66905 9.54324 3.53765 9.46973 3.43315 9.36523C3.32866 9.26073 3.25515 9.12933 3.22078 8.98561C3.20638 8.92001 3.19998 8.81441 3.19998 8.32001V4.48001C3.19998 3.98721 3.20478 3.88161 3.22238 3.81281C3.25675 3.66908 3.33026 3.53768 3.43475 3.43318C3.53925 3.32869 3.67065 3.25518 3.81438 3.22081L3.81278 3.22241ZM15.68 1.60001H15.6C15.2336 1.60001 14.9184 1.60001 14.64 1.66561C14.209 1.76859 13.8149 1.98888 13.5015 2.30207C13.188 2.61526 12.9673 3.00912 12.864 3.44001C12.8 3.71841 12.8 4.03201 12.8 4.40001V8.40001C12.8 8.76641 12.8 9.08161 12.8656 9.36001C12.9686 9.79099 13.1889 10.185 13.502 10.4985C13.8152 10.812 14.2091 11.0326 14.64 11.136C14.9184 11.2 15.232 11.2 15.6 11.2H19.6C19.9664 11.2 20.2816 11.2 20.56 11.1344C20.991 11.0314 21.385 10.8111 21.6985 10.4979C22.012 10.1848 22.2326 9.7909 22.336 9.36001C22.4 9.08161 22.4 8.76801 22.4 8.40001V4.40001C22.4 4.03361 22.4 3.71841 22.3344 3.44001C22.2314 3.00902 22.0111 2.61497 21.6979 2.3015C21.3847 1.98802 20.9909 1.76738 20.56 1.66401C20.2816 1.60001 19.968 1.60001 19.6 1.60001H15.68ZM15.0128 3.22241C15.0816 3.20641 15.1888 3.20001 15.68 3.20001H19.52C20.0128 3.20001 20.1184 3.20481 20.1872 3.22241C20.3309 3.25678 20.4623 3.33029 20.5668 3.43478C20.6713 3.53928 20.7448 3.67068 20.7792 3.81441C20.7952 3.88161 20.8 3.98721 20.8 4.48001V8.32001C20.8 8.81281 20.7936 8.91841 20.7776 8.98721C20.7432 9.13093 20.6697 9.26233 20.5652 9.36683C20.4607 9.47133 20.3293 9.54484 20.1856 9.57921C20.1184 9.59521 20.0128 9.60001 19.52 9.60001H15.68C15.1872 9.60001 15.0816 9.59521 15.0128 9.57761C14.869 9.54324 14.7377 9.46973 14.6332 9.36523C14.5287 9.26073 14.4551 9.12933 14.4208 8.98561C14.4064 8.92001 14.4 8.81441 14.4 8.32001V4.48001C14.4 3.98721 14.4048 3.88161 14.4224 3.81281C14.4567 3.66908 14.5303 3.53768 14.6348 3.43318C14.7392 3.32869 14.8706 3.25518 15.0144 3.22081L15.0128 3.22241ZM4.39998 12.8H8.39998C8.76638 12.8 9.08158 12.8 9.35998 12.8656C9.79096 12.9686 10.185 13.1889 10.4985 13.5021C10.812 13.8153 11.0326 14.2091 11.136 14.64C11.2 14.9184 11.2 15.232 11.2 15.6V19.6C11.2 19.9664 11.2 20.2816 11.1344 20.56C11.0314 20.991 10.8111 21.385 10.4979 21.6985C10.1847 22.012 9.79087 22.2326 9.35998 22.336C9.08158 22.4 8.76798 22.4 8.39998 22.4H4.39998C4.03358 22.4 3.71838 22.4 3.43998 22.3344C3.00899 22.2314 2.61494 22.0111 2.30146 21.6979C1.98799 21.3848 1.76735 20.9909 1.66398 20.56C1.59998 20.2816 1.59998 19.968 1.59998 19.6V15.6C1.59998 15.2336 1.59998 14.9184 1.66558 14.64C1.76856 14.209 1.98885 13.815 2.30204 13.5015C2.61523 13.188 3.00909 12.9674 3.43998 12.864C3.71838 12.8 4.03198 12.8 4.39998 12.8ZM4.47998 14.4C3.98718 14.4 3.88158 14.4048 3.81278 14.4224C3.66905 14.4568 3.53765 14.5303 3.43315 14.6348C3.32866 14.7393 3.25515 14.8707 3.22078 15.0144C3.20638 15.08 3.19998 15.1856 3.19998 15.68V19.52C3.19998 20.0128 3.20478 20.1184 3.22238 20.1872C3.25675 20.3309 3.33026 20.4623 3.43475 20.5668C3.53925 20.6713 3.67065 20.7448 3.81438 20.7792C3.88158 20.7952 3.98718 20.8 4.47998 20.8H8.31998C8.81278 20.8 8.91838 20.7936 8.98718 20.7776C9.1309 20.7432 9.2623 20.6697 9.3668 20.5652C9.4713 20.4607 9.54481 20.3293 9.57918 20.1856C9.59518 20.1184 9.59998 20.0128 9.59998 19.52V15.68C9.59998 15.1872 9.59518 15.0816 9.57758 15.0128C9.54321 14.8691 9.4697 14.7377 9.3652 14.6332C9.2607 14.5287 9.1293 14.4552 8.98558 14.4208C8.91998 14.4064 8.81438 14.4 8.31998 14.4H4.47998ZM15.68 12.8H15.6C15.2336 12.8 14.9184 12.8 14.64 12.8656C14.209 12.9686 13.8149 13.1889 13.5015 13.5021C13.188 13.8153 12.9673 14.2091 12.864 14.64C12.8 14.9184 12.8 15.232 12.8 15.6V19.6C12.8 19.9664 12.8 20.2816 12.8656 20.56C12.9686 20.991 13.1889 21.385 13.502 21.6985C13.8152 22.012 14.2091 22.2326 14.64 22.336C14.9184 22.4016 15.2336 22.4016 15.6 22.4016H19.6C19.9664 22.4016 20.2816 22.4016 20.56 22.336C20.9907 22.2328 21.3844 22.0124 21.6976 21.6992C22.0107 21.386 22.2311 20.9923 22.3344 20.5616C22.4 20.2832 22.4 19.968 22.4 19.6016V15.6C22.4 15.2336 22.4 14.9184 22.3344 14.64C22.2314 14.209 22.0111 13.815 21.6979 13.5015C21.3847 13.188 20.9909 12.9674 20.56 12.864C20.2816 12.8 19.968 12.8 19.6 12.8H15.68ZM15.0128 14.4224C15.0816 14.4064 15.1888 14.4 15.68 14.4H19.52C20.0128 14.4 20.1184 14.4048 20.1872 14.4224C20.3309 14.4568 20.4623 14.5303 20.5668 14.6348C20.6713 14.7393 20.7448 14.8707 20.7792 15.0144C20.7952 15.0816 20.8 15.1872 20.8 15.68V19.52C20.8 20.0128 20.7936 20.1184 20.7776 20.1872C20.7432 20.3309 20.6697 20.4623 20.5652 20.5668C20.4607 20.6713 20.3293 20.7448 20.1856 20.7792C20.1184 20.7952 20.0128 20.8 19.52 20.8H15.68C15.1872 20.8 15.0816 20.7936 15.0128 20.7776C14.869 20.7432 14.7377 20.6697 14.6332 20.5652C14.5287 20.4607 14.4551 20.3293 14.4208 20.1856C14.4064 20.12 14.4 20.0144 14.4 19.52V15.68C14.4 15.1872 14.4048 15.0816 14.4224 15.0128C14.4567 14.8691 14.5303 14.7377 14.6348 14.6332C14.7392 14.5287 14.8706 14.4552 15.0144 14.4208L15.0128 14.4224Z" fill="#FEFEFE" fill-opacity="0.996078"/>
</g>
</svg>
