<svg width="24" height="24" viewBox="0 0 24 24" fill="none" xmlns="http://www.w3.org/2000/svg">
<g id="solar:gallery-favourite-outline">
<g id="Group">
<path id="Vector" fill-rule="evenodd" clip-rule="evenodd" d="M12 1.25H11.943C9.634 1.25 7.825 1.25 6.413 1.44C4.969 1.634 3.829 2.04 2.934 2.934C2.039 3.829 1.634 4.969 1.44 6.414C1.25 7.825 1.25 9.634 1.25 11.943V12.491C1.25 14.585 1.263 16.268 1.44 17.586C1.634 19.031 2.04 20.171 2.934 21.066C3.829 21.961 4.969 22.366 6.414 22.56C7.825 22.75 9.634 22.75 11.943 22.75H12.057C14.366 22.75 16.175 22.75 17.587 22.56C19.031 22.366 20.171 21.96 21.066 21.066C21.961 20.171 22.366 19.031 22.56 17.586C22.75 16.175 22.75 14.366 22.75 12.057V12C22.75 11.8011 22.671 11.6103 22.5303 11.4697C22.3897 11.329 22.1989 11.25 22 11.25C21.8011 11.25 21.6103 11.329 21.4697 11.4697C21.329 11.6103 21.25 11.8011 21.25 12C21.25 14.378 21.248 16.086 21.074 17.386L21.052 17.538L18.278 15.041C17.6469 14.4732 16.8419 14.1363 15.9945 14.0854C15.1471 14.0346 14.3075 14.2727 13.613 14.761L13.315 14.971C13.0742 15.1399 12.7815 15.2184 12.4885 15.1928C12.1955 15.1672 11.9209 15.0391 11.713 14.831L7.423 10.541C6.87576 9.99398 6.14108 9.67539 5.36774 9.64977C4.59441 9.62414 3.84024 9.8934 3.258 10.403L2.751 10.847C2.756 9.054 2.781 7.693 2.926 6.614C3.098 5.335 3.426 4.564 3.995 3.994C4.565 3.425 5.335 3.098 6.614 2.926C7.914 2.752 9.622 2.75 12 2.75C12.1989 2.75 12.3897 2.67098 12.5303 2.53033C12.671 2.38968 12.75 2.19891 12.75 2C12.75 1.80109 12.671 1.61032 12.5303 1.46967C12.3897 1.32902 12.1989 1.25 12 1.25ZM20.61 19.14C20.5702 19.1162 20.5327 19.0887 20.498 19.058L17.275 16.156C16.8963 15.8151 16.413 15.6128 15.9044 15.5823C15.3957 15.5517 14.8918 15.6948 14.475 15.988L14.178 16.198C13.6483 16.5702 13.0042 16.7436 12.3592 16.6876C11.7142 16.6316 11.1097 16.3499 10.652 15.892L6.362 11.602C6.08386 11.3239 5.71041 11.162 5.31732 11.149C4.92423 11.136 4.5409 11.2729 4.245 11.532L2.75 12.84C2.753 14.789 2.773 16.245 2.926 17.386C3.098 18.665 3.426 19.436 3.995 20.006C4.565 20.575 5.335 20.902 6.614 21.074C7.914 21.248 9.622 21.25 12 21.25C14.378 21.25 16.086 21.248 17.386 21.074C18.665 20.902 19.436 20.574 20.006 20.005C20.2561 19.7544 20.4605 19.462 20.61 19.141V19.14Z" fill="#FEFEFE" fill-opacity="0.996078"/>
<path id="Vector_2" fill-rule="evenodd" clip-rule="evenodd" d="M22.75 5.37499C22.75 3.96599 22.07 2.82899 20.934 2.41099C19.994 2.06499 18.934 2.28099 18 2.97699C17.067 2.28199 16.006 2.06499 15.066 2.41099C13.93 2.82899 13.25 3.96599 13.25 5.37499C13.25 6.16299 13.608 6.89299 14.036 7.49699C14.471 8.11099 15.035 8.67199 15.569 9.13599L15.653 9.20999C16.371 9.83499 16.969 10.356 18 10.356C19.03 10.356 19.629 9.83499 20.347 9.20999L20.431 9.13599C20.965 8.67199 21.529 8.11099 21.964 7.49699C22.392 6.89299 22.75 6.16299 22.75 5.37499ZM20.416 3.81799C19.99 3.66199 19.286 3.73799 18.532 4.49699C18.4623 4.56713 18.3794 4.6228 18.2881 4.66079C18.1968 4.69878 18.0989 4.71833 18 4.71833C17.9011 4.71833 17.8032 4.69878 17.7119 4.66079C17.6206 4.6228 17.5377 4.56713 17.468 4.49699C16.713 3.73699 16.01 3.66199 15.584 3.81799C15.17 3.97099 14.75 4.44199 14.75 5.37499C14.75 5.71599 14.913 6.13999 15.26 6.62999C15.6 7.10999 16.066 7.58199 16.552 8.00399C17.385 8.72699 17.576 8.85599 18 8.85599C18.424 8.85599 18.615 8.72699 19.448 8.00399C19.934 7.58199 20.4 7.10899 20.74 6.62999C21.087 6.13999 21.25 5.71599 21.25 5.37499C21.25 4.44199 20.83 3.97099 20.416 3.81799Z" fill="#FEFEFE" fill-opacity="0.996078"/>
</g>
</g>
</svg>
