<svg width="24" height="24" viewBox="0 0 24 24" fill="none" xmlns="http://www.w3.org/2000/svg">
<g id="mingcute:home-6-line" clip-path="url(#clip0_611_305)">
<g id="Group">
<path id="Vector" fill-rule="evenodd" clip-rule="evenodd" d="M13.228 2.688C12.8769 2.4149 12.4448 2.26662 12 2.26662C11.5552 2.26662 11.1231 2.4149 10.772 2.688L2.38798 9.20801C1.63598 9.79501 2.04998 11 3.00298 11H3.99998V19C3.99998 19.5304 4.2107 20.0391 4.58577 20.4142C4.96084 20.7893 5.46955 21 5.99998 21H18C18.5304 21 19.0391 20.7893 19.4142 20.4142C19.7893 20.0391 20 19.5304 20 19V11H20.997C21.949 11 22.365 9.79501 21.612 9.20901L13.228 2.688ZM13 19V13C13 12.7348 12.8946 12.4804 12.7071 12.2929C12.5196 12.1054 12.2652 12 12 12C11.7348 12 11.4804 12.1054 11.2929 12.2929C11.1053 12.4804 11 12.7348 11 13V19H5.99998V10.01C5.99998 9.69301 5.85398 9.41001 5.62498 9.22501L12 4.26701L18.375 9.22501C18.2578 9.31954 18.1633 9.43913 18.0984 9.57497C18.0335 9.71081 17.9999 9.85946 18 10.01V19H13Z" fill="#333333"/>
</g>
</g>
<defs>
<clipPath id="clip0_611_305">
<rect width="24" height="24" fill="white"/>
</clipPath>
</defs>
</svg>
