<svg width="24" height="24" viewBox="0 0 24 24" fill="none" xmlns="http://www.w3.org/2000/svg">
<g id="carbon:notification-new">
<path id="Vector" d="M19.25 12.5431V12.4395V10.75H18.25V12.7499C18.25 12.75 18.25 12.75 18.25 12.75C18.25 12.8826 18.3027 13.0097 18.3965 13.1034L18.3965 13.1035L20.4268 15.1337L20.5 15.2069V15.3105V16.5V16.75H20.25H3.75H3.5V16.5V15.3105V15.2069L3.57322 15.1337L5.60347 13.1035L5.6035 13.1034C5.69726 13.0097 5.74996 12.8826 5.75 12.75C5.75 12.75 5.75 12.75 5.75 12.7499V9.75025V9.75H6C5.99791 8.6961 6.27398 7.6603 6.80032 6.74724C7.32665 5.83417 8.08463 5.07618 8.99767 4.5498C9.91072 4.02343 10.9465 3.74733 12.0004 3.74938C12.959 3.75125 13.9018 3.9832 14.75 4.42394L19.25 12.5431ZM19.25 12.5431L19.3232 12.6163L21.3535 14.6465L21.3535 14.6466C21.4473 14.7403 21.5 14.8674 21.5 15C21.5 15 21.5 15 21.5 15.0001V17.25C21.5 17.3826 21.4473 17.5098 21.3536 17.6036C21.2598 17.6973 21.1326 17.75 21 17.75H15.75H15.5V18V18.75C15.5 19.6783 15.1313 20.5685 14.4749 21.2249C13.8185 21.8813 12.9283 22.25 12 22.25C11.0717 22.25 10.1815 21.8813 9.52513 21.2249C8.86875 20.5685 8.5 19.6783 8.5 18.75V18V17.75H8.25H3C2.86739 17.75 2.74021 17.6973 2.64645 17.6036C2.55268 17.5098 2.5 17.3826 2.5 17.25V15.0001C2.5 15 2.5 15 2.5 15C2.50004 14.8674 2.55274 14.7403 2.6465 14.6466L2.64653 14.6465L4.67678 12.6163L4.75 12.5431V12.4395L4.75 9.75031C4.75 9.75025 4.75 9.75019 4.75 9.75012C4.75229 7.95344 5.42068 6.22141 6.62593 4.88894C7.83122 3.55642 9.48779 2.71815 11.2753 2.53621L11.5 2.51335V2.2875V1M19.25 12.5431L11.5 1M11.5 1H12.5V2.28825V2.51399L12.7246 2.53695C13.4214 2.6082 14.1038 2.78112 14.75 3.04997V4.14371C13.8966 3.7225 12.9563 3.50125 12.0009 3.49938L11.5 1ZM9.75 17.75H9.5V18V18.75C9.5 19.413 9.76339 20.0489 10.2322 20.5178C10.7011 20.9866 11.337 21.25 12 21.25C12.663 21.25 13.2989 20.9866 13.7678 20.5178C14.2366 20.0489 14.5 19.413 14.5 18.75V18V17.75H14.25H9.75Z" fill="#333333" stroke="#333333" stroke-width="0.5"/>
<path id="Vector_2" d="M22 6C22 7.38071 20.8807 8.5 19.5 8.5C18.1193 8.5 17 7.38071 17 6C17 4.61929 18.1193 3.5 19.5 3.5C20.8807 3.5 22 4.61929 22 6Z" fill="#FF2323" stroke="#FF2323"/>
</g>
</svg>
